<svg height="472pt" viewBox="0 0 472 472.00384" width="472pt" xmlns="http://www.w3.org/2000/svg"><path d="m136 288.003906h32v32h-32zm0 0" fill="#ffc857"/><path d="m208 288.003906h-152c-26.507812 0-48-21.492187-48-48v-80c0-26.511718 21.492188-48 48-48h152zm0 0" fill="#177e89"/><path d="m208 112.003906 208-104v384l-208-104zm0 0" fill="#ffc857"/><path d="m416 160.003906h32c8.839844 0 16 7.164063 16 16v48c0 8.835938-7.160156 16-16 16h-32zm0 0" fill="#db3a34"/><path d="m155.050781 464.003906h-30.824219c-7.21875 0-13.542968-4.828125-15.441406-11.792968l-44.785156-164.207032h64l42.65625 154.207032c1.519531 5.027343.617188 10.472656-2.4375 14.738281-3.058594 4.269531-7.921875 6.875-13.167969 7.054687zm0 0" fill="#084c61"/><path d="m448 152.003906h-24v-144c.003906-2.773437-1.429688-5.347656-3.789062-6.808594-2.359376-1.457031-5.304688-1.589843-7.785157-.351562l-206.3125 103.160156h-150.113281c-30.910156.035156-55.9609375 25.085938-56 56v80c.0390625 30.914063 25.089844 55.964844 56 56h1.890625l43.199219 158.3125c2.863281 10.425782 12.324218 17.660156 23.136718 17.6875h30.824219c7.214844.023438 14.046875-3.25 18.550781-8.886718 5.058594-6.535157 6.828126-15.03125 4.800782-23.042969l-31.03125-112.070313h20.628906c4.421875 0 8-3.582031 8-8v-24h30.113281l206.3125 103.199219c2.488281 1.242187 5.441407 1.105469 7.800781-.363281 2.363282-1.46875 3.789063-4.054688 3.773438-6.835938v-144h24c13.257812 0 24-10.746094 24-24v-48c0-13.253906-10.742188-24-24-24zm-292.878906 264h-47.917969l-32.730469-120h47.441406zm5.976562 37.097656c-1.457031 1.851563-3.691406 2.921876-6.046875 2.902344h-30.824219c-3.605468 0-6.769531-2.410156-7.71875-5.886718l-4.9375-18.113282h48l3.304688 11.929688c.832031 3.164062.179688 6.539062-1.777344 9.167968zm-1.097656-141.097656h-16c-.335938.046875-.667969.113282-1 .199219l-4.484375-16.199219h21.484375zm248 67.054688-24-12v-23.054688c0-4.417968-3.578125-8-8-8-4.417969 0-8 3.582032-8 8v15.054688l-152-76v-123.054688c0-4.417968-3.578125-8-8-8-4.417969 0-8 3.582032-8 8v120h-144c-2.683594.003906-5.363281-.265625-8-.800781v-15.199219c0-4.417968-3.578125-8-8-8-4.417969 0-8 3.582032-8 8v7.792969c-10.035156-7.492187-15.960938-19.269531-16-31.792969v-80c.039062-12.523437 5.964844-24.300781 16-31.792968v103.792968c0 4.417969 3.582031 8 8 8 4.421875 0 8-3.582031 8-8v-111.199218c2.636719-.535157 5.316406-.804688 8-.800782h144v8c0 4.417969 3.582031 8 8 8 4.421875 0 8-3.582031 8-8v-11.054687l152-76v271.054687c0 4.417969 3.582031 8 8 8 4.421875 0 8-3.582031 8-8v-279.054687l24-12zm48-155.054688c0 4.417969-3.578125 8-8 8h-24v-64h24c4.421875 0 8 3.582032 8 8zm0 0"/></svg>