<svg height="479.904pt" viewBox="0 0 479.904 479.904" width="479.904pt" xmlns="http://www.w3.org/2000/svg"><path d="m239.722656 77.960938 52.578125 106.519531 117.550781 17.078125-85.066406 82.921875 20.082032 117.078125-105.144532-55.269532-105.144531 55.269532 20.082031-117.078125-85.066406-82.921875 117.554688-17.078125zm0 0" fill="#ffc857"/><path d="m263.722656 271.757812c0 13.257813-10.746094 24-24 24s-24-10.742187-24-24c0-13.253906 10.746094-24 24-24s24 10.746094 24 24zm0 0" fill="#db3a34"/><path d="m420.890625 82.3125c-2.90625-3.332031-7.957031-3.675781-11.289063-.769531-3.328124 2.90625-3.671874 7.957031-.765624 11.289062 79.234374 91.050781 72.082031 228.511719-16.179688 310.84375-88.257812 82.332031-225.882812 79.929688-311.21875-5.433593-85.332031-85.363282-87.683594-222.988282-5.316406-311.21875 82.363281-88.230469 219.828125-95.332032 310.851562-16.0625 2.101563 2.128906 5.222656 2.90625 8.082032 2.011718 2.859374-.894531 4.976562-3.3125 5.492187-6.261718.511719-2.953126-.667969-5.945313-3.054687-7.75-97.53125-84.894532-244.785157-77.242188-332.992188 17.304687-88.203125 94.542969-85.636719 241.972656 5.808594 333.386719 91.445312 91.414062 238.878906 93.933594 333.390625 5.695312 94.515625-88.238281 102.117187-235.496094 17.191406-332.996094zm0 0"/><path d="m417.460938 199.09375c-.941407-2.894531-3.445313-5.007812-6.457032-5.445312l-113.394531-16.480469-50.6875-102.753907c-1.496094-2.539062-4.226563-4.101562-7.175781-4.101562-2.949219 0-5.679688 1.5625-7.175782 4.101562l-50.734374 102.753907-113.394532 16.480469c-3.011718.4375-5.515625 2.546874-6.457031 5.445312-.941406 2.894531-.15625 6.078125 2.027344 8.203125l82.046875 80-19.367188 112.917969c-.515625 3 .71875 6.035156 3.183594 7.824218 2.464844 1.789063 5.730469 2.023438 8.425781.609376l101.421875-53.328126 101.425782 53.328126c2.695312 1.414062 5.960937 1.179687 8.421874-.609376 2.464844-1.789062 3.699219-4.824218 3.183594-7.824218l-19.367187-112.945313 82.046875-80c2.171875-2.121093 2.957031-5.285156 2.027344-8.175781zm-98.257813 79.65625c-1.886719 1.839844-2.746094 4.484375-2.304687 7.082031l17.34375 101.128907-90.800782-47.761719c-2.328125-1.222657-5.109375-1.222657-7.4375 0l-90.800781 47.761719 17.34375-101.105469c.445313-2.597657-.417969-5.242188-2.304687-7.082031l-73.457032-71.597657 101.515625-14.777343c2.605469-.378907 4.855469-2.015626 6.023438-4.375l45.398437-91.992188 45.398438 92c1.167968 2.359375 3.421875 3.996094 6.027344 4.375l101.511718 14.753906zm0 0"/><path d="m239.722656 239.757812c-17.671875 0-32 14.328126-32 32 0 17.675782 14.328125 32 32 32s32-14.324218 32-32c0-17.671874-14.328125-32-32-32zm0 48c-8.835937 0-16-7.164062-16-16 0-8.835937 7.164063-16 16-16 8.835938 0 16 7.164063 16 16 0 8.835938-7.164062 16-16 16zm0 0"/><path d="m271.722656 207.757812h-40v-8c0-4.417968-3.582031-8-8-8-4.417968 0-8 3.582032-8 8v8h-8c-4.417968 0-8 3.582032-8 8 0 4.417969 3.582032 8 8 8h64c4.417969 0 8-3.582031 8-8 0-4.417968-3.582031-8-8-8zm0 0"/></svg>