<svg height="480pt" viewBox="0 -76 480.00035 480" width="480pt" xmlns="http://www.w3.org/2000/svg"><path d="m40 96h240c17.671875 0 32 14.328125 32 32v160c0 17.671875-14.328125 32-32 32h-240c-17.671875 0-32-14.328125-32-32v-160c0-17.671875 14.328125-32 32-32zm0 0" fill="#177e89"/><path d="m376 248-64-8v-80l64-8zm0 0" fill="#177e89"/><path d="m376 160 74.945312-24.984375c4.878907-1.625 10.242188-.804687 14.414063 2.203125s6.640625 7.839844 6.640625 12.980469v99.601562c.007812 5.144531-2.460938 9.980469-6.636719 12.992188-4.171875 3.011719-9.535156 3.832031-14.417969 2.207031l-74.945312-25zm0 0" fill="#084c61"/><path d="m216 128h48c8.835938 0 16 7.164062 16 16v16c0 8.835938-7.164062 16-16 16h-48c-8.835938 0-16-7.164062-16-16v-16c0-8.835938 7.164062-16 16-16zm0 0" fill="#ffc857"/><path d="m56 208h112c8.835938 0 16 7.164062 16 16v48c0 8.835938-7.164062 16-16 16h-112c-8.835938 0-16-7.164062-16-16v-48c0-8.835938 7.164062-16 16-16zm0 0" fill="#ffc857"/><path d="m280 248c0 17.671875-14.328125 32-32 32s-32-14.328125-32-32 14.328125-32 32-32 32 14.328125 32 32zm0 0" fill="#084c61"/><path d="m296 8v48h112c9.132812-4.683594 15.1875-13.765625 16-24-.8125-10.234375-6.867188-19.316406-16-24zm0 0" fill="#db3a34"/><path d="m470.03125 130.726562c-6.238281-4.539062-14.292969-5.769531-21.597656-3.292968l-65.035156 21.671875c-1.246094-3.449219-4.734376-5.550781-8.367188-5.042969l-55.03125 6.875v-22.9375c-.027344-22.082031-17.917969-39.972656-40-40h-8v-41.75l16-4v13.75c0 4.417969 3.582031 8 8 8h112c1.242188 0 2.464844-.285156 3.574219-.839844 11.839843-6.046875 19.605469-17.894531 20.425781-31.160156-.820312-13.265625-8.585938-25.113281-20.425781-31.160156-1.109375-.554688-2.332031-.839844-3.574219-.839844h-72c-4.417969 0-8 3.582031-8 8s3.582031 8 8 8h69.816406c5.796875 3.355469 9.597656 9.324219 10.183594 16-.585938 6.671875-4.382812 12.640625-10.175781 16h-101.824219v-32c4.417969 0 8-3.582031 8-8s-3.582031-8-8-8h-8c-4.417969 0-8 3.582031-8 8v17.753906l-25.945312 6.484375c-3.558594.894531-6.054688 4.09375-6.054688 7.761719v48h-20.257812l-37.597657-45.121094c-1.519531-1.824218-3.769531-2.878906-6.144531-2.878906h-136c-3.90625 0-7.242188 2.824219-7.886719 6.679688l-6.890625 41.320312h-1.222656c-22.082031.027344-39.9726562 17.917969-40 40v160c.0273438 22.082031 17.917969 39.972656 40 40h240c22.082031-.027344 39.972656-17.917969 40-40v-38.9375l55.007812 6.875c.328126.042969.660157.066406.992188.0625 3.296875.046875 6.257812-2.003906 7.375-5.105469l65.03125 21.671875c2.472656.835938 5.066406 1.261719 7.671875 1.265625 13.210937-.078125 23.886719-10.789062 23.921875-24v-99.632812c.042969-7.722657-3.675781-14.988281-9.96875-19.472657zm-407.253906-74.726562h125.480468l26.664063 32h-157.472656zm241.222656 232c0 13.253906-10.746094 24-24 24h-240c-13.253906 0-24-10.746094-24-24v-160c0-13.253906 10.746094-24 24-24h240c13.253906 0 24 10.746094 24 24zm16-120.9375 16-2v34.9375c0 4.417969 3.582031 8 8 8s8-3.582031 8-8v-36.9375l16-2v77.875l-16-2v-4.9375c0-4.417969-3.582031-8-8-8s-8 3.582031-8 8v2.9375l-16-2zm64-1.292969 48-16v100.460938l-48-16zm80 84c0 2.570313-1.234375 4.984375-3.320312 6.488281-2.085938 1.503907-4.769532 1.914063-7.207032 1.101563l-5.472656-1.792969v-111.132812l5.472656-1.824219c2.4375-.8125 5.121094-.402344 7.207032 1.101563 2.085937 1.503906 3.320312 3.917968 3.320312 6.488281zm0 0"/><path d="m264 120h-48c-13.253906 0-24 10.746094-24 24v16c0 13.253906 10.746094 24 24 24h48c13.253906 0 24-10.746094 24-24v-16c0-13.253906-10.746094-24-24-24zm8 40c0 4.417969-3.582031 8-8 8h-48c-4.417969 0-8-3.582031-8-8v-16c0-4.417969 3.582031-8 8-8h48c4.417969 0 8 3.582031 8 8zm0 0"/><path d="m56 144h16c4.417969 0 8-3.582031 8-8s-3.582031-8-8-8h-16c-4.417969 0-8 3.582031-8 8s3.582031 8 8 8zm0 0"/><path d="m104 144h16c4.417969 0 8-3.582031 8-8s-3.582031-8-8-8h-16c-4.417969 0-8 3.582031-8 8s3.582031 8 8 8zm0 0"/><path d="m56 176h104c4.417969 0 8-3.582031 8-8s-3.582031-8-8-8h-104c-4.417969 0-8 3.582031-8 8s3.582031 8 8 8zm0 0"/><path d="m168 200h-112c-13.253906 0-24 10.746094-24 24v48c0 13.253906 10.746094 24 24 24h112c13.253906 0 24-10.746094 24-24v-48c0-13.253906-10.746094-24-24-24zm8 72c0 4.417969-3.582031 8-8 8h-112c-4.417969 0-8-3.582031-8-8v-48c0-4.417969 3.582031-8 8-8h112c4.417969 0 8 3.582031 8 8zm0 0"/><path d="m248 208c-22.089844 0-40 17.910156-40 40s17.910156 40 40 40 40-17.910156 40-40c-.027344-22.082031-17.917969-39.972656-40-40zm0 64c-13.253906 0-24-10.746094-24-24s10.746094-24 24-24 24 10.746094 24 24-10.746094 24-24 24zm0 0"/></svg>