<svg height="512pt" viewBox="0 0 512 512" width="512pt" xmlns="http://www.w3.org/2000/svg" xmlns:xlink="http://www.w3.org/1999/xlink"><linearGradient id="a" gradientUnits="userSpaceOnUse" x1="255.9997124805" x2="255.9997124805" y1=".000000255" y2="511.8936485895"><stop offset="0" stop-color="#2af598"/><stop offset="1" stop-color="#009efd"/></linearGradient><path d="m196.769531 465.023438v-387.378907l117.863281-30.585937v264.359375l39.953126-79.347657v-185.289062l116.863281 29.03125v239.078125l39.953125 5.691406v-276.011719l-176.898438-43.945312-157.941406 40.984375-176.5625-41.609375v467.355469l176.839844 43.929687 4.855468-1.230468 82.132813-20.792969 7.546875-43.125-8.03125 2.035156zm-156.816406-414.558594 116.863281 27.539062v387.136719l-116.863281-29.027344zm472.046875 310.558594-90.789062-12.929688-40.15625-79.753906-40.15625 79.753906-90.785157 12.929688 65.726563 62.800781-15.414063 88.070312 80.628907-41.550781 80.628906 41.550781-15.410156-88.070312zm-103.542969 78.496093-27.402343-14.121093-27.402344 14.121093 5.222656-29.839843-21.671875-20.703126 29.992187-4.269531 13.859376-27.527343 13.859374 27.527343 29.996094 4.269531-21.671875 20.703126zm0 0" fill="url(#a)"/></svg>