<svg height="512pt" viewBox="-22 0 512 512" width="512pt" xmlns="http://www.w3.org/2000/svg"><path d="m305.847656 386.28125c88.941406 7.886719 153.023438 30.109375 153.023438 56.285156 0 32.78125-100.464844 59.351563-224.394532 59.351563-123.929687 0-224.394531-26.570313-224.394531-59.351563 0-26.207031 64.222657-48.445312 153.3125-56.308594" fill="#f5737f"/><path d="m337.445312 46.863281c-59.789062-49.042969-147.605468-49.042969-207.394531 0-56.28125 46.171875-80.457031 132.25-59.472656 201.492188 25.3125 83.527343 98.019531 144.585937 163.167969 197.789062 63.269531-51.535156 133.261718-108.253906 160.464844-188.226562 24.148437-70.992188 1.847656-162.972657-56.765626-211.054688zm0 0" fill="#ffcb7c"/><path d="m347.984375 179.277344c0 62.695312-50.824219 113.519531-113.523437 113.519531-62.695313 0-113.519532-50.824219-113.519532-113.519531 0-62.695313 50.824219-113.519532 113.519532-113.519532 62.699218 0 113.523437 50.824219 113.523437 113.519532zm0 0" fill="#fafafa"/><path d="m259.664062 179.316406c0 13.914063-11.277343 25.191406-25.1875 25.191406-13.910156 0-25.1875-11.277343-25.1875-25.191406 0-13.910156 11.277344-25.1875 25.1875-25.1875 13.910157 0 25.1875 11.277344 25.1875 25.1875zm0 0" fill="#e3e3e3"/><path d="m419.140625 398.085938c-24.328125-8.796876-56.246094-15.589844-93.128906-19.871094 3.566406-3.609375 7.085937-7.265625 10.535156-10.976563 33.019531-35.488281 55-70.183593 67.207031-106.070312 26.222656-77.085938.464844-172.566407-59.914062-222.097657-30.714844-25.195312-69.8125-39.070312-110.089844-39.070312-.003906 0 0 0 0 0-40.277344 0-79.378906 13.875-110.089844 39.070312-28.59375 23.457032-50.613281 57.929688-62 97.070313-11.25 38.679687-11.507812 79.566406-.726562 115.136719 14.417968 47.585937 45.386718 89.5 81.820312 126.957031-36.757812 4.28125-68.574218 11.050781-92.847656 19.816406-33.117188 11.960938-49.90625 26.9375-49.90625 44.515625 0 21.464844 24.636719 38.863282 73.226562 51.714844 43.199219 11.425781 100.464844 17.71875 161.25 17.71875 60.78125 0 118.050782-6.292969 161.25-17.71875 48.589844-12.851562 73.226563-30.25 73.226563-51.714844 0-17.5625-16.761719-32.53125-49.8125-44.480468zm-338.121094-256.3125c10.261719-35.273438 29.945313-66.210938 55.425781-87.117188 27.121094-22.246094 61.675782-34.496094 97.304688-34.496094 35.625 0 70.183594 12.253906 97.300781 34.5 26.367188 21.628906 46.277344 54.191406 56.058594 91.6875 9.632813 36.910156 8.765625 75.382813-2.441406 108.324219-25.257813 74.257813-91.710938 129.625-150.917969 178.429687-62.742188-51.78125-130.949219-113.179687-153.523438-187.671874-9.660156-31.875-9.378906-68.6875.792969-103.65625zm309.550781 333.015624c-41.566406 10.996094-97 17.050782-156.09375 17.050782s-114.527343-6.054688-156.09375-17.050782c-45.960937-12.15625-58.222656-25.972656-58.222656-32.222656 0-13.390625 44.898438-37.105468 141.175782-45.996094 20.066406 19.042969 41.144531 36.894532 61.59375 53.742188 8.304687 6.839844 13.199218 6.949219 21.640624-.003906 19.921876-16.417969 41.628907-34.320313 62.542969-53.785156 96.628907 8.859374 141.675781 32.636718 141.675781 46.042968 0 6.25-12.261718 20.066406-58.21875 32.222656zm0 0"/><path d="m288.441406 290.496094c11.710938-5.515625 3.136719-23.765625-8.585937-18.242188-14.328125 6.746094-30.445313 10.460938-45.390625 10.460938-57.039063 0-103.441406-46.402344-103.441406-103.4375 0-57.039063 46.402343-103.4375 103.4375-103.4375 57.039062 0 103.441406 46.402344 103.441406 103.4375 0 14.0625-2.769532 27.6875-8.226563 40.503906-5.074219 11.90625 13.46875 19.824219 18.546875 7.902344 6.53125-15.328125 9.839844-31.613282 9.839844-48.40625 0-68.152344-55.445312-123.601563-123.601562-123.601563-68.152344 0-123.601563 55.449219-123.601563 123.601563s55.449219 123.601562 123.601563 123.601562c17.855468 0 37.027343-4.398437 53.980468-12.382812 5.039063-2.375-16.953125 7.984375 0 0 11.710938-5.515625-16.953125 7.984375 0 0zm0 0"/><path d="m317.214844 246.753906c-5.476563 0-10.078125 4.605469-10.078125 10.082032-.003907 5.480468 4.605469 10.078124 10.078125 10.082031 5.324218 0 9.828125-4.335938 10.0625-9.640625.25-5.640625-4.402344-10.523438-10.0625-10.523438zm0 0"/><path d="m299.410156 169.238281h-31.140625c-3.394531-11.351562-12.359375-20.320312-23.714843-23.714843v-22.921876c0-12.945312-20.160157-12.964843-20.160157 0v22.925782c-14.550781 4.347656-25.1875 17.847656-25.1875 33.792968 0 19.445313 15.820313 35.269532 35.269531 35.269532 15.941407 0 29.445313-10.640625 33.792969-25.191406h31.140625c12.945313 0 12.964844-20.160157 0-20.160157zm-64.933594 25.1875c-8.332031 0-15.109374-6.777343-15.109374-15.109375 0-8.328125 6.777343-15.105468 15.109374-15.105468 8.328126 0 15.105469 6.777343 15.105469 15.105468 0 8.332032-6.777343 15.109375-15.105469 15.109375zm0 0"/></svg>